<svg version="1.2" xmlns="http://www.w3.org/2000/svg" viewBox="0 0 150 198" width="150" height="198">
	<title>phishing-warning-bunny</title>
	<style>
		.s0 { fill: #bf8006 } 
		.s1 { fill: #f0a206 } 
		.s2 { fill: #a78556 } 
		.s3 { fill: #0e0e0e } 
		.s4 { fill: #ffffff } 
		.s5 { opacity: .3;fill: #a78556 } 
	</style>
	<g id="Carpeta 10">
		<path id="Layer" class="s0" d="m97.6 105.1c-3.7 8.5-6 17.5-9.1 26.1q-0.6 1.9-1.3 3.7-0.8 1.8-1.6 3.6-0.8 1.7-1.7 3.4-0.9 1.8-1.8 3.5l-1.1-3.8q-0.5 1.6-1.2 3.1-0.6 1.6-1.4 3.1-0.9 1.5-1.8 2.9-1 1.4-2 2.7v0.1q0 0 0 0 0-0.1 0-0.1 0 0 0 0 0 0 0 0 0 0 0 0 0 0 0 0 0 0 0 0.1 0 0 0 0v-0.1q-1.1-1.3-2.1-2.7-0.9-1.4-1.7-2.9-0.9-1.5-1.5-3.1-0.7-1.5-1.2-3.1l-1 3.8q-1-1.7-1.9-3.5-0.9-1.7-1.7-3.4-0.8-1.8-1.5-3.6-0.8-1.8-1.4-3.7c-3.1-8.6-5.4-17.6-9.1-26.1 5.8-21.3 38.3-21.3 46.1 0z"/>
		<path id="Layer" class="s1" d="m104 100.7c0 18.2-14.3 40-29.7 40-15.3 0-28.9-22.5-28.9-40.8 0-18.2 13.6-25.1 28.9-25.1 15.4 0 29.7 7.7 29.7 25.9z"/>
		<path id="Layer" class="s2" d="m56.5 106.7c-1.4 14.3-0.4 21.3-0.4 21.3 0.1 4.2-2.4-3.7-2.4-3.7 2.7 7.1 0.8 10.7 0.8 10.7-3.6-2.5-7.3-10.4-7.3-10.4-14.9-31.6 6.8-45.5 6.8-45.5 10.3-5.5 3.9 13.2 2.5 27.6z"/>
		<path id="Layer" class="s3" d="m56.5 128.1c0 2.9-1.3 0.7-2-1.3 1.8 6-0.1 8.2-0.1 8.2-3.6-2.5-7.4-10.7-7.4-10.7-0.8-1.9-1.6-3.7-2.2-5.5 0.4 0.3 5 7.8 5.6 7.9 0.7 0.2-2.6-7-2.1-7.2 0.5-0.2 1.4 1 1.8 0.6 0.4-0.5 0.2-2.5 0.3-3.1 0.1-0.8 2.5 4.5 2.7 3.7 0.2-1 0-2.7 1.3-10.4 2.4-14.6 2.9-17.3 4.6-20.4 0.2-0.4-0.7 4.6-2.1 16.3-1.6 13.9-0.4 21.9-0.4 21.9z"/>
		<path id="Layer" class="s2" d="m95.5 79.2c0 0 21.9 13.4 7.7 45.4 0 0-3.5 7.9-7 10.4 0 0-2-3.5 0.5-10.6 0 0-2.3 7.9-2.3 3.7 0 0 0.9-7-0.8-21.4-1.7-14.3-8.5-32.9 1.9-27.5z"/>
		<path id="Layer" class="s3" d="m93.1 106.3c-1.6-11.6-2.7-16.6-2.5-16.2 1.8 3 2.4 5.7 5.1 20.3 1.4 7.7 1.3 9.3 1.5 10.3 0.2 0.8 2.4-4.5 2.6-3.7 0.2 0.6 0 2.6 0.4 3.1 0.4 0.4 1.3-0.8 1.8-0.7 0.5 0.2-2.7 7.5-2 7.3 0.6-0.2 5-7.6 5.5-8-0.6 1.8-1.3 3.6-2.2 5.5 0 0-3.6 8.3-7.1 10.8 0 0-2-2.1-0.3-8.2-0.7 2.1-1.9 4.3-1.9 1.4 0 0 1-8-0.9-21.9z"/>
		<path id="Layer" class="s3" d="m77 156q-1.2-0.2-2.4-0.4-1.1-0.2-2.3-0.4-1.2-0.1-2.4-0.2-1.2-0.1-2.4-0.2-0.6 0.2-1.2 0.4-1.7 0.5-3.3 1.3-1.6 0.7-3.1 1.7-1.5 1-2.8 2.1-1.3 1.2-2.5 2.6c-0.3 0.3-0.8 0.7-1.1 0.4q0.4-0.8 1-1.6 0.6-0.8 1.2-1.5 0.7-0.7 1.5-1.3 0.7-0.6 1.5-1.2 0.6-0.4 1.3-0.7 0.6-0.4 1.2-0.8 0.7-0.3 1.3-0.6 0.7-0.3 1.4-0.6l0.3-0.2q-1.8 0.1-3.6 0.4-1.8 0.2-3.6 0.5-1.8 0.4-3.5 0.8-1.8 0.4-3.5 1-0.7 0.2-1.4 0.4-0.7 0.2-1.4 0.6-0.6 0.3-1.2 0.7-0.7 0.3-1.3 0.8c-0.6-1 0.5-2.1 1.7-2.7 4.4-2.3 9.8-2.8 14.9-3.5q-0.3-0.1-0.6-0.1-0.3 0-0.7 0-0.3 0-0.6 0-0.4 0-0.7 0.1c-2.2 0-6.8 0.4-9 0.6q-0.6 0.1-1.2 0.2-0.6 0.1-1.2 0.2-0.6 0.2-1.2 0.4-0.5 0.1-1.1 0.4-0.1 0-0.2 0.1-0.1 0-0.1 0-0.1 0-0.2 0.1-0.1 0-0.2 0c-0.3 0-0.5-0.1-0.6-0.3 0-0.3 0.3-0.5 0.6-0.6q1-0.4 2.1-0.7 1-0.3 2.1-0.5 1.1-0.2 2.2-0.4 1.1-0.1 2.2-0.2 0.9-0.1 1.9-0.1 0.9-0.1 1.9-0.1 1-0.1 1.9-0.1 1 0 2 0 0.5 0 1.1 0 0.5 0 1.1 0 0.5 0 1.1 0.1 0.6 0 1.1 0 0 0 0.1 0 0-0.1 0-0.1 0-0.1 0-0.1 0.1-0.1 0.1-0.1c1.3-4.6-0.5-17.5-1.2-23.1-0.2-1.6-0.3-2-0.3-2 0 0 1.7-2 4.8 0-2.6 6.9-1.3 17.2-1.7 24.9 0 0.2-0.1 0.5 0.1 0.7q0.1 0 0.2 0 0 0.1 0.1 0.1 0 0 0.1 0 0.1 0 0.1 0c3.5 0.7 7.1 1.4 10.6 2 1.2 0.2 1 1.3-1 0.8z"/>
		<path id="Layer" class="s3" d="m106.6 155.5c-0.1 0.2-0.3 0.3-0.6 0.3q-0.1 0-0.2 0-0.1-0.1-0.1-0.1-0.1 0-0.2 0-0.1-0.1-0.2-0.1-0.5-0.3-1.1-0.4-0.6-0.2-1.2-0.4-0.6-0.1-1.2-0.2-0.6-0.1-1.2-0.2c-2.2-0.2-6.8-0.6-9-0.6q-0.3-0.1-0.7-0.1-0.3 0-0.6 0-0.3 0-0.7 0-0.3 0-0.6 0.1c5.2 0.7 10.5 1.2 14.9 3.5 1.2 0.6 2.4 1.7 1.7 2.7q-0.6-0.5-1.2-0.8-0.7-0.4-1.3-0.7-0.7-0.4-1.4-0.6-0.7-0.3-1.4-0.4-1.7-0.6-3.5-1-1.7-0.5-3.5-0.8-1.8-0.3-3.6-0.6-1.7-0.2-3.5-0.3l0.2 0.2q0.7 0.2 1.4 0.6 0.6 0.3 1.3 0.6 0.6 0.4 1.2 0.7 0.7 0.4 1.3 0.8 0.8 0.5 1.6 1.2 0.7 0.6 1.4 1.3 0.6 0.7 1.2 1.5 0.6 0.7 1.1 1.6c-0.4 0.3-0.9-0.1-1.2-0.4q-1.2-1.4-2.5-2.6-1.3-1.1-2.8-2.1-1.5-1-3.1-1.7-1.6-0.8-3.3-1.3-0.6-0.2-1.2-0.4-1.2 0.1-2.4 0.2-1.2 0.1-2.3 0.2-1.2 0.2-2.4 0.4-1.2 0.2-2.4 0.4c-2 0.5-2.2-0.7-1-0.9 3.6-0.5 7.1-1.2 10.6-1.9q0 0 0.1 0 0.1 0 0.1 0 0.1 0 0.1-0.1 0.1 0 0.2 0c0.2-0.2 0.1-0.5 0.1-0.7-0.4-7.8 0.9-18.1-1.7-24.9 3.2-2 4.8 0 4.8 0 0 0-0.1 0.4-0.3 2-0.7 5.6-2.5 18.5-1.2 23.1q0.1 0 0.1 0.1 0 0 0 0.1 0 0 0 0.1 0.1 0 0.1 0 0.5 0 1.1-0.1 0.6 0 1.1 0 0.6 0 1.1 0 0.6 0 1.2 0 0.9 0 1.9 0 0.9 0 1.9 0 1 0.1 1.9 0.2 1 0 1.9 0.1 1.1 0.1 2.2 0.2 1.1 0.2 2.2 0.4 1.1 0.2 2.1 0.5 1.1 0.3 2.1 0.6c0.3 0.2 0.6 0.5 0.6 0.7z"/>
		<path id="Layer" class="s0" d="m63.9 106.9c0 0.3-0.5 0.4-0.6 0-0.1-0.8-0.2-1.6-0.3-2.4q-0.1-0.3-0.1-0.6-0.1-0.3-0.1-0.5 0-0.3 0-0.6 0-0.3 0-0.6 0-0.1 0.1-0.3 0.1-0.1 0.2-0.1 0.2 0 0.3 0 0.1 0.1 0.2 0.2c0.7 1.4 0.4 3.4 0.3 4.9z"/>
		<path id="Layer" class="s0" d="m68.5 115.3c0 0.3-0.5 0.4-0.5 0.1-0.1-0.8-0.3-1.6-0.4-2.5q0-0.2-0.1-0.5 0-0.3-0.1-0.6 0-0.3 0-0.6 0-0.3 0-0.5 0-0.2 0.1-0.3 0.1-0.1 0.3-0.1 0.1-0.1 0.3 0 0.1 0 0.2 0.2c0.6 1.4 0.4 3.3 0.2 4.8z"/>
		<path id="Layer" class="s0" d="m65.2 115.3c0 0.3-0.5 0.4-0.6 0.1-0.1-0.8-0.2-1.6-0.3-2.5q-0.1-0.2-0.1-0.5-0.1-0.3-0.1-0.6 0-0.3-0.1-0.6 0-0.3 0-0.5 0.1-0.2 0.2-0.3 0.1-0.1 0.2-0.1 0.2-0.1 0.3 0 0.1 0 0.2 0.2c0.7 1.4 0.4 3.3 0.3 4.8z"/>
		<path id="Layer" class="s0" d="m69.9 125.3c-0.1 0.3-0.6 0.4-0.6 0-0.1-0.8-0.3-1.6-0.4-2.4q0-0.3-0.1-0.6 0-0.2 0-0.5-0.1-0.3-0.1-0.6 0-0.3 0-0.6 0.1-0.1 0.2-0.2 0.1-0.2 0.2-0.2 0.2 0 0.3 0 0.1 0.1 0.2 0.2c0.7 1.4 0.4 3.4 0.3 4.9z"/>
		<path id="Layer" class="s0" d="m77.7 126.2c-0.2 0.3-0.7 0.2-0.6-0.1 0.2-0.8 0.3-1.6 0.5-2.4q0-0.3 0.1-0.6 0-0.3 0.1-0.6 0.1-0.3 0.2-0.5 0-0.3 0.2-0.6 0-0.1 0.2-0.2 0.1 0 0.2 0 0.2 0 0.3 0.1 0.1 0.1 0.1 0.3c0.2 1.5-0.7 3.2-1.4 4.6z"/>
		<path id="Layer" class="s0" d="m82.6 122c-0.2 0.3-0.6 0.2-0.6-0.1 0.2-0.8 0.3-1.6 0.5-2.4q0-0.3 0.1-0.6 0.1-0.3 0.1-0.6 0.1-0.3 0.2-0.5 0.1-0.3 0.2-0.6 0.1-0.1 0.2-0.2 0.1 0 0.3 0 0.1 0 0.2 0.1 0.1 0.1 0.2 0.3c0.1 1.5-0.8 3.2-1.4 4.6z"/>
		<path id="Layer" class="s0" d="m79.6 118c-0.1 0.3-0.6 0.2-0.5-0.1 0.1-0.8 0.3-1.7 0.4-2.5q0.1-0.2 0.1-0.5 0.1-0.3 0.2-0.6 0-0.3 0.1-0.5 0.1-0.3 0.2-0.6 0.1-0.1 0.2-0.2 0.1 0 0.3 0 0.1 0 0.2 0.1 0.2 0.1 0.2 0.3c0.1 1.5-0.8 3.3-1.4 4.6z"/>
		<path id="Layer" class="s0" d="m84.6 110.2c-0.1 0.3-0.6 0.2-0.6-0.2 0.2-0.8 0.3-1.6 0.5-2.4q0.1-0.3 0.1-0.6 0.1-0.2 0.1-0.5 0.1-0.3 0.2-0.6 0.1-0.2 0.2-0.5 0.1-0.1 0.2-0.2 0.1-0.1 0.3-0.1 0.1 0.1 0.2 0.2 0.1 0.1 0.2 0.2c0.1 1.6-0.8 3.3-1.4 4.7z"/>
		<path id="Layer" class="s0" d="m80.8 109.6c-0.1 0.3-0.6 0.1-0.5-0.2 0.2-0.8 0.3-1.6 0.5-2.4q0-0.3 0.1-0.6 0-0.2 0.1-0.5 0.1-0.3 0.1-0.6 0.1-0.2 0.2-0.5 0.1-0.1 0.2-0.2 0.2-0.1 0.3-0.1 0.2 0.1 0.3 0.2 0.1 0.1 0.1 0.2c0.2 1.5-0.7 3.3-1.4 4.7z"/>
		<path id="Layer" class="s0" d="m84.2 102.7c-0.1 0.3-0.6 0.2-0.5-0.1 0.1-0.8 0.3-1.7 0.4-2.5q0.1-0.2 0.1-0.5 0.1-0.3 0.2-0.6 0-0.3 0.1-0.5 0.1-0.3 0.2-0.6 0.1-0.1 0.2-0.2 0.2 0 0.3 0 0.1 0 0.3 0.1 0.1 0.1 0.1 0.3c0.1 1.5-0.7 3.2-1.4 4.6z"/>
		<path id="Layer" class="s0" d="m66.9 125.3c0 0.3-0.5 0.4-0.6 0-0.1-0.8-0.2-1.6-0.3-2.4q-0.1-0.3-0.1-0.6-0.1-0.2-0.1-0.5 0-0.3 0-0.6 0-0.3 0-0.6 0-0.1 0.1-0.2 0.1-0.2 0.2-0.2 0.2 0 0.3 0 0.1 0.1 0.2 0.2c0.7 1.4 0.4 3.4 0.3 4.9z"/>
		<path id="Layer" class="s0" d="m66.9 103.3c0 0.3-0.5 0.3-0.6 0-0.1-0.8-0.2-1.6-0.3-2.4q-0.1-0.3-0.1-0.6-0.1-0.3-0.1-0.6 0-0.3 0-0.5 0-0.3 0-0.6 0-0.2 0.1-0.3 0.1-0.1 0.2-0.1 0.2-0.1 0.3 0 0.1 0.1 0.2 0.2c0.7 1.4 0.4 3.3 0.3 4.8z"/>
		<path id="Layer" class="s3" d="m93.8 71.4q-0.5 2.3-1.5 4.4-1 2.2-2.4 4-1.5 1.9-3.3 3.4c-0.2 0.5-6 14.3-7.6 19.8-1.5 5.4-4.5 22.7-4.5 22.7 0 0-3.4-17.4-5-23.3-1.6-5.6-6.1-17.6-6.7-19.1q-1.8-1.5-3.3-3.3-1.5-1.9-2.5-4.1-1-2.1-1.5-4.4-0.5-2.4-0.5-4.7-0.1-2.9 0.7-5.7 0.7-2.8 2.2-5.3 1.5-2.4 3.6-4.4 2-2 4.6-3.3 0.3-0.3 0.7-0.5 0.3-0.2 0.7-0.4 0.3-0.2 0.7-0.4 0.4-0.2 0.8-0.4 0.2-0.1 0.4-0.2 0.2-0.1 0.4-0.2 0.2 0 0.4-0.1 0.2-0.1 0.5-0.1-0.6-0.2-1.1-0.3-0.5-0.1-1.1-0.2-0.5-0.1-1-0.1-0.6 0-1.1 0 0.4-0.1 0.8-0.3 0.5-0.1 0.9-0.2 0.5-0.1 0.9-0.1 0.5-0.1 0.9-0.1 0.2 0 0.4 0 0.2 0.1 0.4 0.1 0.1 0 0.3 0 0.2 0 0.4 0.1-0.6-0.4-1.3-0.8-0.7-0.3-1.4-0.6-0.7-0.3-1.4-0.5-0.7-0.2-1.4-0.4 0.7-0.1 1.4-0.1 0.7 0 1.3 0 0.7 0.1 1.4 0.2 0.7 0.1 1.4 0.2 0.3 0.1 0.5 0.2 0.3 0.1 0.5 0.2 0.3 0.1 0.6 0.3 0.2 0.1 0.5 0.2-0.6-0.6-1.2-1.1-0.6-0.5-1.3-1-0.6-0.4-1.3-0.8-0.7-0.4-1.5-0.7 1 0 1.9 0.1 1 0.1 1.9 0.3 0.9 0.2 1.8 0.6 0.9 0.3 1.8 0.7 0.8 0.4 1.5 1 0.8 0.6 1.4 1.2 0.6 0.7 1.2 1.5 0.5 0.7 0.9 1.6c8 2.6 13.7 10.5 13.7 19.8q0 2.3-0.5 4.6z"/>
		<ellipse id="Layer" class="s4" cx="83.6" cy="65" rx="4" ry="4.7"/>
		<path id="Layer" fill-rule="evenodd" class="s3" d="m86.8 66.6q-0.1 0.4-0.3 0.8-0.2 0.4-0.5 0.7-0.3 0.3-0.7 0.5-0.1 0.1-0.3 0.2-0.1 0.1-0.3 0.2-0.2 0-0.3 0.1-0.2 0-0.3 0.1-0.5 0-0.9-0.1-0.5-0.1-0.9-0.3-0.4-0.2-0.7-0.5-0.3-0.3-0.5-0.7-0.2-0.4-0.3-0.9-0.1-0.4-0.2-0.9 0-0.4 0.1-0.9 0-0.5 0.2-0.9 0-0.2 0.1-0.4 0.1-0.2 0.2-0.4 0.1-0.1 0.2-0.3 0.1-0.2 0.3-0.3 0.2-0.2 0.4-0.4 0.2-0.2 0.5-0.3 0.3-0.1 0.6-0.1 0.2-0.1 0.5-0.1c1.9 0.1 3.5 2.1 3.3 4q0 0.5-0.2 0.9zm-0.9-0.4q0.1-0.2 0.2-0.4 0-0.2 0-0.3 0-0.2 0-0.4c-0.1-0.8-0.9-2.8-2.1-2.3-0.3 0.2-0.3 0.7-0.1 1.1q0.1 0.1 0.1 0.2 0.1 0.2 0.2 0.3 0 0.1 0.1 0.3 0.1 0.1 0.1 0.2c0.1 0.5-0.2 1 0 1.5q0.1 0.1 0.3 0.2 0.1 0.1 0.3 0.1 0.2 0 0.4 0 0.2-0.1 0.3-0.2 0.1-0.2 0.2-0.3z"/>
		<ellipse id="Layer" class="s4" cx="67" cy="65" rx="4" ry="4.7"/>
		<path id="Layer" fill-rule="evenodd" class="s3" d="m70.2 66.6q-0.1 0.4-0.3 0.8-0.3 0.3-0.6 0.7-0.3 0.3-0.6 0.5-0.2 0.1-0.3 0.2-0.2 0.1-0.3 0.2-0.2 0-0.3 0.1-0.2 0-0.4 0-0.4 0.1-0.8 0-0.5-0.1-0.9-0.3-0.4-0.2-0.7-0.5-0.3-0.3-0.5-0.7-0.2-0.5-0.3-0.9-0.1-0.4-0.2-0.9 0-0.5 0.1-0.9 0-0.5 0.2-0.9 0-0.2 0.1-0.4 0.1-0.2 0.2-0.4 0.1-0.1 0.2-0.3 0.1-0.2 0.2-0.3 0.2-0.2 0.5-0.4 0.2-0.2 0.5-0.3 0.2-0.1 0.5-0.1 0.3-0.1 0.6-0.1c1.9 0.1 3.5 2.1 3.3 4q-0.1 0.5-0.2 0.9zm-0.9-0.4q0.1-0.2 0.1-0.4 0.1-0.1 0.1-0.3 0-0.2 0-0.4c-0.1-0.8-1-2.8-2.1-2.3-0.3 0.2-0.3 0.7-0.1 1.1q0 0.1 0.1 0.2 0.1 0.2 0.2 0.3 0 0.1 0.1 0.3 0 0.1 0.1 0.2c0.1 0.5-0.2 1 0 1.5q0.1 0.1 0.2 0.2 0.2 0.1 0.4 0.1 0.2 0 0.4 0 0.1-0.1 0.3-0.2 0.1-0.2 0.2-0.3z"/>
		<path id="Layer" class="s1" d="m67.9 72.7c0 0 7.3-5.3 14.2 0l-6.2 9.6q-0.2 0.2-0.4 0.3-0.2 0.2-0.5 0.2-0.3 0-0.5-0.2-0.2-0.1-0.4-0.3z"/>
		<path id="Layer" class="s5" d="m63.9 83.8c0 0 8.2 8 21.2 0 0 0-11.4 5.7-21.2 0z"/>
		<path id="Layer" class="s1" d="m62.2 50.7c1.3 0.8 6.6 2.1 6.6 2.1-10.6-1-13.8 14.2-13.8 14.2-0.4-10.1 7.1-16.3 7.2-16.3z"/>
		<path id="Layer" class="s1" d="m94.3 67c0 0-3.3-15.2-13.8-14.2 0 0 5.3-1.3 6.6-2.1 0 0 7.2 5 7.2 16.3z"/>
	</g>
</svg>