<svg version="1.2" xmlns="http://www.w3.org/2000/svg" viewBox="0 0 150 198" width="150" height="198">
	<title>phishing-warning-bunny</title>
	<style>
		.s0 { fill: #bf8006 } 
		.s1 { fill: #f0a206 } 
		.s2 { fill: #a78556 } 
		.s3 { fill: #0e0e0e } 
		.s4 { fill: #ffffff } 
		.s5 { opacity: .3;fill: #a78556 } 
	</style>
	<g id="Carpeta 9">
		<path id="Layer" class="s0" d="m96.4 104.8c-3.7 8.4-6 17.4-9.1 26q-0.6 1.8-1.3 3.6-0.7 1.8-1.5 3.6-0.8 1.8-1.7 3.5-0.9 1.7-1.9 3.4l-1-3.8q-0.5 1.6-1.2 3.2-0.7 1.5-1.5 3-0.8 1.5-1.8 2.8-0.9 1.4-2 2.7v0.1q0 0 0 0 0 0 0 0 0 0 0 0 0 0 0 0 0 0 0 0 0 0 0 0 0 0 0 0 0 0 0 0v-0.1q-1.1-1.3-2-2.7-1-1.3-1.8-2.8-0.8-1.5-1.5-3-0.6-1.6-1.2-3.2l-1 3.8q-0.9-1.7-1.8-3.4-0.9-1.7-1.7-3.5-0.8-1.8-1.5-3.6-0.8-1.8-1.4-3.6c-3.1-8.6-5.4-17.6-9-26 5.7-21.2 38.1-21.2 45.9 0z"/>
		<path id="Layer" class="s1" d="m102.7 100.4c0 18.2-14.3 39.9-29.5 39.9-15.3 0-28.8-22.5-28.8-40.6 0-18.2 13.5-25.1 28.8-25.1 15.2 0 29.5 7.7 29.5 25.8z"/>
		<path id="Layer" class="s2" d="m55.4 106.3c-1.4 14.3-0.3 21.3-0.3 21.3 0 4.2-2.4-3.7-2.4-3.7 2.6 7.1 0.7 10.6 0.7 10.6-3.6-2.4-7.2-10.3-7.2-10.3-14.8-31.5 6.7-45.3 6.7-45.3 10.3-5.5 3.9 13.2 2.5 27.4z"/>
		<path id="Layer" class="s3" d="m55.4 127.7c0.1 2.9-1.2 0.7-1.9-1.4 1.8 6-0.1 8.2-0.1 8.2-3.6-2.4-7.4-10.6-7.4-10.6-0.8-1.9-1.5-3.7-2.2-5.5 0.5 0.4 5 7.7 5.6 7.9 0.7 0.2-2.6-7-2.1-7.2 0.5-0.2 1.4 1 1.8 0.6 0.4-0.4 0.1-2.5 0.3-3.1 0.1-0.8 2.5 4.5 2.7 3.7 0.2-1 0-2.7 1.3-10.3 2.4-14.5 2.9-17.3 4.6-20.3 0.2-0.4-0.8 4.5-2.1 16.2-1.6 13.8-0.5 21.8-0.5 21.8z"/>
		<path id="Layer" class="s2" d="m94.6 71.5c1.7-14.3 0.8-21.3 0.8-21.3 0-4.1 2.3 3.8 2.3 3.8-2.5-7.2-0.5-10.6-0.5-10.6 3.5 2.5 6.9 10.4 6.9 10.4 14.2 31.8-7.6 45.1-7.6 45.1-10.4 5.3-3.6-13.1-1.9-27.4z"/>
		<path id="Layer" class="s3" d="m95 50.1c0-2.9 1.2-0.7 1.9 1.4-1.7-6 0.3-8.2 0.3-8.2 3.5 2.5 7.1 10.8 7.1 10.8 0.9 1.9 1.5 3.7 2.1 5.5-0.4-0.4-4.8-7.8-5.4-8-0.7-0.2 2.5 7.1 2 7.3-0.6 0.1-1.5-1-1.8-0.7-0.4 0.4-0.2 2.5-0.3 3.1-0.2 0.8-2.5-4.5-2.7-3.7-0.2 1-0.1 2.6-1.5 10.3-2.7 14.5-3.2 17.1-5 20.2-0.2 0.3 0.9-4.6 2.4-16.2 1.9-13.8 0.9-21.8 0.9-21.8z"/>
		<path id="Layer" class="s3" d="m75.8 155.5q-1.1-0.3-2.3-0.5-1.2-0.2-2.4-0.3-1.2-0.2-2.4-0.3-1.2-0.1-2.4-0.1-0.5 0.2-1.1 0.3-1.7 0.6-3.3 1.3-1.6 0.8-3.1 1.7-1.4 1-2.8 2.2-1.3 1.1-2.4 2.5c-0.3 0.3-0.9 0.7-1.2 0.4q0.5-0.8 1-1.6 0.6-0.8 1.3-1.5 0.6-0.7 1.4-1.3 0.7-0.6 1.6-1.1 0.6-0.4 1.2-0.8 0.6-0.4 1.3-0.7 0.6-0.4 1.2-0.7 0.7-0.3 1.4-0.6l0.3-0.1q-1.8 0.1-3.6 0.3-1.8 0.2-3.6 0.6-1.7 0.3-3.5 0.7-1.7 0.5-3.4 1-0.7 0.2-1.4 0.4-0.7 0.3-1.4 0.6-0.6 0.3-1.3 0.7-0.6 0.4-1.2 0.8c-0.6-0.9 0.5-2.1 1.6-2.7 4.5-2.3 9.8-2.7 15-3.5q-0.4 0-0.7 0-0.3 0-0.7 0-0.3 0-0.6 0-0.3 0-0.7 0c-2.1 0.1-6.8 0.5-8.9 0.7q-0.6 0-1.2 0.1-0.6 0.1-1.2 0.3-0.6 0.1-1.2 0.3-0.6 0.2-1.1 0.4-0.1 0.1-0.2 0.1-0.1 0-0.2 0.1 0 0-0.1 0-0.1 0-0.2 0.1c-0.3 0-0.5-0.1-0.6-0.4 0-0.3 0.3-0.5 0.6-0.6q1-0.4 2.1-0.6 1-0.3 2.1-0.6 1.1-0.2 2.1-0.3 1.1-0.2 2.2-0.2 1-0.1 1.9-0.2 1 0 1.9-0.1 1 0 2 0 0.9 0 1.9 0 0.5 0 1.1 0 0.5 0 1.1 0 0.5 0 1.1 0 0.6 0.1 1.1 0.1 0 0 0.1-0.1 0 0 0-0.1 0 0 0 0 0-0.1 0.1-0.1c1.3-4.6-0.5-17.4-1.2-23-0.2-1.6-0.3-2-0.3-2 0 0 1.6-2 4.8 0-2.6 6.8-1.3 17.1-1.7 24.7 0 0.3-0.1 0.6 0.1 0.7q0.1 0.1 0.1 0.1 0.1 0 0.2 0.1 0 0 0.1 0 0.1 0 0.1 0c3.5 0.6 7 1.3 10.5 1.9 1.3 0.2 1 1.4-1 0.9z"/>
		<path id="Layer" class="s3" d="m105.3 154.9c-0.1 0.2-0.3 0.4-0.6 0.4q-0.1-0.1-0.2-0.1-0.1 0-0.1 0-0.1-0.1-0.2-0.1-0.1 0-0.2-0.1-0.5-0.2-1.1-0.4-0.6-0.2-1.2-0.3-0.6-0.2-1.2-0.3-0.6-0.1-1.2-0.1c-2.2-0.2-6.8-0.6-8.9-0.7q-0.4 0-0.7 0-0.3 0-0.6 0-0.4 0-0.7 0-0.3 0-0.7 0c5.2 0.8 10.5 1.2 15 3.5 1.1 0.6 2.3 1.8 1.6 2.7q-0.6-0.4-1.2-0.8-0.7-0.4-1.3-0.7-0.7-0.3-1.4-0.6-0.6-0.2-1.4-0.4-1.7-0.5-3.4-1-1.8-0.4-3.5-0.7-1.8-0.4-3.6-0.6-1.8-0.2-3.6-0.3l0.3 0.1q0.7 0.3 1.4 0.6 0.6 0.3 1.3 0.7 0.6 0.3 1.2 0.7 0.6 0.4 1.2 0.8 0.9 0.5 1.6 1.1 0.8 0.6 1.4 1.3 0.7 0.7 1.3 1.5 0.5 0.8 1 1.6c-0.3 0.3-0.9-0.1-1.2-0.4q-1.1-1.4-2.4-2.5-1.4-1.2-2.8-2.2-1.5-0.9-3.1-1.7-1.6-0.7-3.3-1.3-0.6-0.1-1.1-0.3-1.2 0-2.4 0.1-1.2 0.1-2.4 0.3-1.2 0.1-2.4 0.3-1.2 0.2-2.3 0.5c-2.1 0.5-2.3-0.7-1-0.9 3.5-0.6 7-1.3 10.5-1.9q0 0 0.1 0 0.1 0 0.1-0.1 0.1 0 0.2 0 0 0 0.1-0.1c0.2-0.1 0.1-0.4 0.1-0.7-0.4-7.6 0.9-17.9-1.7-24.7 3.2-2 4.8 0 4.8 0 0 0-0.1 0.4-0.3 2-0.7 5.6-2.5 18.4-1.2 23q0.1 0 0.1 0 0 0.1 0 0.1 0 0.1 0 0.1 0.1 0.1 0.1 0.1 0.5 0 1.1-0.1 0.6 0 1.1 0 0.6-0.1 1.1-0.1 0.6 0 1.1 0.1 1-0.1 1.9 0 1 0 2 0 0.9 0.1 1.9 0.1 0.9 0.1 1.9 0.2 1.1 0 2.2 0.2 1 0.1 2.1 0.3 1.1 0.3 2.1 0.5 1.1 0.3 2.1 0.7c0.3 0.1 0.6 0.4 0.6 0.6z"/>
		<path id="Layer" class="s0" d="m62.8 106.6c0 0.3-0.5 0.3-0.6 0-0.1-0.8-0.2-1.6-0.3-2.4q-0.1-0.3-0.1-0.6-0.1-0.3-0.1-0.5 0-0.3 0-0.6 0-0.3 0-0.6 0-0.1 0.1-0.2 0.1-0.2 0.2-0.2 0.2 0 0.3 0 0.2 0.1 0.2 0.2c0.7 1.4 0.4 3.4 0.3 4.8z"/>
		<path id="Layer" class="s0" d="m67.4 115c0 0.3-0.5 0.4-0.6 0-0.1-0.8-0.2-1.6-0.3-2.4q-0.1-0.3-0.1-0.6 0-0.2-0.1-0.5 0-0.3 0-0.6 0-0.3 0-0.6 0-0.1 0.1-0.2 0.1-0.1 0.3-0.2 0.1 0 0.2 0.1 0.2 0 0.2 0.2c0.7 1.3 0.5 3.3 0.3 4.8z"/>
		<path id="Layer" class="s0" d="m64.1 115c-0.1 0.3-0.6 0.4-0.6 0-0.1-0.8-0.3-1.6-0.4-2.4q0-0.3-0.1-0.6 0-0.2 0-0.5-0.1-0.3-0.1-0.6 0-0.3 0-0.6 0-0.1 0.1-0.2 0.1-0.1 0.3-0.2 0.1 0 0.3 0.1 0.1 0 0.2 0.2c0.7 1.3 0.4 3.3 0.3 4.8z"/>
		<path id="Layer" class="s0" d="m68.7 124.9c0 0.3-0.5 0.4-0.5 0-0.1-0.8-0.3-1.6-0.4-2.4q0-0.3-0.1-0.6 0-0.2-0.1-0.5 0-0.3 0-0.6 0-0.3 0-0.6 0-0.1 0.1-0.2 0.1-0.1 0.3-0.2 0.1 0 0.3 0.1 0.1 0 0.2 0.2c0.6 1.3 0.4 3.3 0.2 4.8z"/>
		<path id="Layer" class="s0" d="m76.5 125.8c-0.1 0.3-0.6 0.2-0.6-0.1 0.2-0.8 0.3-1.6 0.5-2.4q0.1-0.3 0.1-0.6 0.1-0.3 0.1-0.6 0.1-0.2 0.2-0.5 0.1-0.3 0.2-0.6 0.1-0.1 0.2-0.2 0.1 0 0.3 0 0.1 0 0.2 0.1 0.1 0.1 0.1 0.3c0.2 1.5-0.7 3.2-1.3 4.6z"/>
		<path id="Layer" class="s0" d="m81.4 121.6c-0.1 0.3-0.6 0.2-0.6-0.1 0.2-0.8 0.3-1.6 0.5-2.4q0.1-0.3 0.1-0.6 0.1-0.3 0.1-0.5 0.1-0.3 0.2-0.6 0.1-0.3 0.2-0.5 0.1-0.2 0.2-0.2 0.1-0.1 0.3-0.1 0.1 0 0.2 0.1 0.1 0.1 0.2 0.3c0.1 1.5-0.8 3.3-1.4 4.6z"/>
		<path id="Layer" class="s0" d="m78.4 117.6c-0.1 0.3-0.6 0.2-0.5-0.1 0.2-0.8 0.3-1.6 0.5-2.4q0-0.3 0.1-0.6 0-0.3 0.1-0.5 0.1-0.3 0.1-0.6 0.1-0.2 0.2-0.5 0.1-0.1 0.2-0.2 0.2-0.1 0.3-0.1 0.2 0.1 0.3 0.2 0.1 0.1 0.1 0.2c0.2 1.5-0.7 3.3-1.4 4.6z"/>
		<path id="Layer" class="s0" d="m83.4 109.8c-0.1 0.3-0.6 0.2-0.6-0.1 0.2-0.8 0.3-1.6 0.5-2.4q0.1-0.3 0.1-0.6 0.1-0.3 0.1-0.5 0.1-0.3 0.2-0.6 0.1-0.3 0.2-0.5 0.1-0.1 0.2-0.2 0.1-0.1 0.3-0.1 0.1 0.1 0.2 0.2 0.1 0.1 0.2 0.2c0.1 1.5-0.8 3.3-1.4 4.6z"/>
		<path id="Layer" class="s0" d="m79.7 109.2c-0.2 0.3-0.7 0.2-0.6-0.1 0.2-0.8 0.3-1.6 0.5-2.4q0-0.3 0.1-0.6 0-0.3 0.1-0.5 0.1-0.3 0.2-0.6 0.1-0.3 0.2-0.5 0-0.2 0.2-0.2 0.1-0.1 0.2-0.1 0.2 0.1 0.3 0.2 0.1 0.1 0.1 0.2c0.2 1.5-0.7 3.3-1.4 4.6z"/>
		<path id="Layer" class="s0" d="m83 102.4c-0.1 0.3-0.6 0.2-0.5-0.1 0.1-0.8 0.3-1.6 0.5-2.4q0-0.3 0-0.6 0.1-0.3 0.2-0.6 0-0.2 0.1-0.5 0.1-0.3 0.2-0.5 0.1-0.2 0.2-0.2 0.2-0.1 0.3-0.1 0.1 0 0.3 0.1 0.1 0.1 0.1 0.3c0.1 1.5-0.7 3.2-1.4 4.6z"/>
		<path id="Layer" class="s0" d="m65.8 124.9c-0.1 0.3-0.6 0.4-0.6 0-0.1-0.8-0.2-1.6-0.3-2.4q-0.1-0.3-0.1-0.6-0.1-0.2-0.1-0.5 0-0.3-0.1-0.6 0-0.3 0.1-0.6 0-0.1 0.1-0.2 0.1-0.1 0.2-0.2 0.2 0 0.3 0.1 0.1 0 0.2 0.2c0.7 1.3 0.4 3.3 0.3 4.8z"/>
		<path id="Layer" class="s0" d="m65.8 103c-0.1 0.3-0.6 0.3-0.6 0-0.1-0.8-0.2-1.6-0.3-2.4q-0.1-0.3-0.1-0.6-0.1-0.3-0.1-0.6 0-0.2-0.1-0.5 0-0.3 0.1-0.6 0-0.1 0.1-0.3 0.1-0.1 0.2-0.1 0.2 0 0.3 0 0.1 0.1 0.2 0.2c0.7 1.4 0.4 3.4 0.3 4.8z"/>
		<path id="Layer" class="s3" d="m92.6 71.3q-0.5 2.3-1.5 4.4-1 2.1-2.5 4-1.4 1.8-3.2 3.3c-0.2 0.5-6 14.2-7.5 19.7-1.6 5.4-4.6 22.6-4.6 22.6 0 0-3.3-17.3-4.9-23.2-1.6-5.6-6.1-17.5-6.7-19q-1.8-1.5-3.3-3.3-1.4-1.9-2.4-4.1-1-2.1-1.5-4.4-0.5-2.3-0.5-4.7-0.1-2.8 0.7-5.6 0.7-2.8 2.2-5.2 1.4-2.5 3.5-4.5 2-1.9 4.6-3.3 0.3-0.2 0.6-0.4 0.4-0.3 0.8-0.5 0.3-0.2 0.7-0.4 0.3-0.2 0.7-0.3 0.2-0.1 0.4-0.2 0.2-0.1 0.5-0.2 0.2-0.1 0.4-0.1 0.2-0.1 0.4-0.2-0.5-0.1-1-0.2-0.6-0.1-1.1-0.2-0.5-0.1-1.1-0.1-0.5 0-1.1 0 0.5-0.2 0.9-0.3 0.4-0.1 0.9-0.2 0.4-0.1 0.9-0.1 0.4-0.1 0.9-0.1 0.1 0 0.3 0 0.2 0 0.4 0.1 0.2 0 0.4 0 0.2 0 0.3 0.1-0.6-0.4-1.3-0.8-0.6-0.3-1.3-0.6-0.7-0.3-1.4-0.5-0.7-0.2-1.5-0.4 0.7-0.1 1.4-0.1 0.7 0 1.4 0 0.7 0.1 1.4 0.2 0.7 0.1 1.3 0.2 0.3 0.1 0.6 0.2 0.3 0.1 0.5 0.2 0.3 0.1 0.5 0.2 0.3 0.2 0.6 0.3-0.6-0.6-1.2-1.1-0.6-0.5-1.3-1-0.7-0.4-1.4-0.8-0.7-0.4-1.4-0.7 0.9 0 1.9 0.1 0.9 0.1 1.9 0.3 0.9 0.2 1.8 0.5 0.9 0.3 1.7 0.8 0.8 0.4 1.6 1 0.7 0.5 1.3 1.2 0.7 0.7 1.2 1.4 0.5 0.8 0.9 1.6c7.9 2.7 13.7 10.5 13.7 19.7q0 2.4-0.5 4.7z"/>
		<ellipse id="Layer" class="s4" cx="82.4" cy="64.9" rx="4" ry="4.7"/>
		<path id="Layer" fill-rule="evenodd" class="s3" d="m85.6 66.4q-0.1 0.5-0.3 0.8-0.3 0.4-0.6 0.7-0.3 0.4-0.6 0.6-0.2 0.1-0.3 0.2-0.2 0.1-0.3 0.1-0.2 0.1-0.3 0.1-0.2 0.1-0.4 0.1-0.4 0.1-0.8 0-0.5-0.1-0.9-0.3-0.4-0.2-0.7-0.6-0.3-0.3-0.5-0.7-0.2-0.4-0.3-0.8-0.1-0.5-0.1-0.9-0.1-0.5 0-0.9 0.1-0.5 0.2-0.9 0.1-0.2 0.1-0.4 0.1-0.2 0.2-0.4 0.1-0.2 0.2-0.3 0.1-0.2 0.3-0.3 0.2-0.3 0.4-0.4 0.2-0.2 0.5-0.3 0.3-0.1 0.6-0.1 0.2-0.1 0.5-0.1c1.9 0.1 3.5 2.1 3.3 4q0 0.4-0.2 0.8zm-0.9-0.3q0.1-0.2 0.2-0.4 0-0.2 0-0.4 0-0.1 0-0.3c-0.1-0.8-0.9-2.8-2.1-2.3-0.3 0.2-0.3 0.7-0.1 1.1q0.1 0.1 0.1 0.2 0.1 0.1 0.2 0.3 0 0.1 0.1 0.2 0.1 0.2 0.1 0.3c0.1 0.5-0.2 1 0 1.4q0.1 0.2 0.3 0.3 0.1 0.1 0.3 0.1 0.2 0 0.4 0 0.2-0.1 0.3-0.2 0.1-0.2 0.2-0.3z"/>
		<ellipse id="Layer" class="s4" cx="65.9" cy="64.9" rx="4" ry="4.7"/>
		<path id="Layer" fill-rule="evenodd" class="s3" d="m69.1 66.4q-0.2 0.5-0.4 0.8-0.2 0.4-0.5 0.7-0.3 0.4-0.7 0.6-0.1 0.1-0.2 0.2-0.2 0.1-0.3 0.1-0.2 0.1-0.4 0.1-0.1 0.1-0.3 0.1-0.4 0.1-0.9 0-0.4-0.1-0.8-0.3-0.4-0.2-0.7-0.5-0.3-0.4-0.5-0.8-0.2-0.4-0.3-0.8-0.2-0.5-0.2-0.9 0-0.5 0.1-0.9 0-0.5 0.2-0.9 0-0.2 0.1-0.4 0.1-0.2 0.2-0.4 0.1-0.2 0.2-0.3 0.1-0.2 0.2-0.3 0.2-0.3 0.5-0.4 0.2-0.2 0.5-0.3 0.2-0.1 0.5-0.1 0.3-0.1 0.6-0.1c1.9 0.1 3.4 2.1 3.3 4q-0.1 0.4-0.2 0.8zm-0.9-0.3q0.1-0.2 0.1-0.4 0.1-0.2 0.1-0.4 0-0.1 0-0.3c-0.1-0.8-0.9-2.8-2.1-2.3-0.3 0.2-0.3 0.7-0.1 1.1q0.1 0.1 0.1 0.2 0.1 0.1 0.2 0.3 0 0.1 0.1 0.2 0 0.2 0.1 0.3c0 0.5-0.3 1 0 1.4q0.1 0.2 0.2 0.3 0.2 0.1 0.4 0.1 0.2 0 0.3 0 0.2-0.1 0.3-0.2 0.2-0.2 0.3-0.3z"/>
		<path id="Layer" class="s1" d="m66.8 72.5c0 0 7.2-5.3 14.1 0l-6.2 9.6q-0.1 0.2-0.4 0.3-0.2 0.2-0.5 0.2-0.2 0-0.5-0.2-0.2-0.1-0.4-0.3z"/>
		<path id="Layer" class="s5" d="m62.7 83.6c0 0 8.3 7.9 21.2 0 0 0-11.4 5.6-21.2 0z"/>
		<path id="Layer" class="s1" d="m61.1 50.6c1.3 0.9 6.6 2.2 6.6 2.2-10.5-1-13.8 14-13.8 14-0.4-10 7.1-16.2 7.2-16.2z"/>
		<path id="Layer" class="s1" d="m93 66.8c0 0-3.2-15-13.7-14 0 0 5.3-1.3 6.6-2.2 0 0 7.2 5.1 7.1 16.2z"/>
	</g>
</svg>